<svg width="1002" height="307" viewBox="0 0 1002 307" fill="none" xmlns="http://www.w3.org/2000/svg">
<rect width="1002" height="307" fill="#890B7C"/>
<path d="M299.08 174L286.6 160.8V97.2L299.08 84H332.92L345.4 97.2V160.8L332.92 174H299.08ZM303.76 163.68H328.12L334.36 157.32V100.68L328.24 94.32H303.88L297.64 100.68V157.32L303.76 163.68ZM357.447 93.6V84H382.887V93.6H374.007L391.407 160.8L408.807 93.6H403.647V84H429.567V93.6H424.287L441.687 160.8L459.087 93.6H450.327V84H475.767V93.6H470.127L449.367 174H434.607L416.607 104.52L398.607 174H383.847L362.967 93.6H357.447ZM487.811 84H516.851V93.6H507.251V164.4H533.411V150.48H542.531V174H487.811V164.4H496.211V93.6H487.811V84ZM568.291 84H600.331V93.6H594.811L615.931 164.4H621.931V174H596.491V164.4H604.891L599.371 145.92H569.251L563.731 164.4H572.131V174H546.691V164.4H552.691L573.811 93.6H568.291V84ZM584.251 95.4L572.131 136.32H596.491L584.251 95.4ZM686.158 112.32H676.198V101.76L668.998 94.32H650.638L644.398 100.68V117.24L650.278 123.24H675.238L687.358 135.96V160.8L674.878 174H644.638L632.158 160.8V145.68H642.118V156.24L649.438 163.68H670.198L676.318 157.32V139.44L670.558 133.56H645.598L633.358 120.72V97.2L645.838 84H673.678L686.158 97.2V112.32ZM705.311 84H762.431V107.52H752.831V93.6H724.751V124.2H752.831V133.8H724.751V164.4H752.831V150.48H762.431V174H705.311V164.4H713.711V93.6H705.311V84ZM781.6 84H829.6L842.08 97.2V123.6L829.6 136.8L842.44 164.4H848.68V174H826.12V164.4H830.8L817.96 136.8H801.04V164.4H808.24V174H781.6V164.4H790V93.6H781.6V84ZM801.04 94.32V126.48H824.8L831.76 119.4V101.4L824.92 94.32H801.04Z" fill="white"/>
<path d="M320.555 245V240.27C322.792 243.937 326.477 245.77 331.61 245.77C336.23 245.77 339.475 244.817 341.345 242.91C343.252 241.003 344.205 238.18 344.205 234.44C344.205 231.03 343.417 228.573 341.84 227.07C340.263 225.53 337.458 224.375 333.425 223.605L328.53 222.67C325.817 222.157 324.038 221.423 323.195 220.47C322.352 219.517 321.93 217.903 321.93 215.63C321.93 212.843 322.535 210.772 323.745 209.415C324.955 208.058 327.228 207.38 330.565 207.38C336.285 207.38 339.512 209.8 340.245 214.64H343.215V204.85H340.245V209.14C338.265 205.767 334.763 204.08 329.74 204.08C325.413 204.08 322.37 205.07 320.61 207.05C318.85 209.03 317.97 211.908 317.97 215.685C317.97 219.132 318.703 221.588 320.17 223.055C321.673 224.522 324.405 225.64 328.365 226.41L333.315 227.345C335.955 227.858 337.77 228.628 338.76 229.655C339.75 230.682 340.245 232.46 340.245 234.99C340.245 237.483 339.548 239.353 338.155 240.6C336.798 241.847 334.433 242.47 331.06 242.47C327.577 242.47 324.973 241.608 323.25 239.885C321.527 238.125 320.628 235.87 320.555 233.12H317.585V245H320.555ZM371.274 213.54L371.329 216.95C369.496 214.163 366.599 212.77 362.639 212.77C360.513 212.77 358.661 213.082 357.084 213.705C355.544 214.292 354.316 215.062 353.399 216.015C352.519 216.968 351.804 218.197 351.254 219.7C350.741 221.203 350.393 222.688 350.209 224.155C350.063 225.622 349.989 227.327 349.989 229.27C349.989 231.213 350.063 232.9 350.209 234.33C350.356 235.723 350.686 237.19 351.199 238.73C351.713 240.27 352.409 241.517 353.289 242.47C354.206 243.423 355.471 244.212 357.084 244.835C358.734 245.458 360.678 245.77 362.914 245.77C365.151 245.77 367.021 245.55 368.524 245.11C370.028 244.67 371.183 243.992 371.989 243.075C372.796 242.122 373.364 241.113 373.694 240.05C374.061 238.987 374.299 237.667 374.409 236.09L371.274 235.925C371.128 238.198 370.486 239.867 369.349 240.93C368.249 241.993 366.086 242.525 362.859 242.525C361.466 242.525 360.256 242.36 359.229 242.03C358.203 241.7 357.359 241.187 356.699 240.49C356.076 239.793 355.563 239.078 355.159 238.345C354.756 237.612 354.463 236.677 354.279 235.54C354.096 234.403 353.968 233.395 353.894 232.515C353.858 231.635 353.839 230.553 353.839 229.27C353.839 227.767 353.876 226.502 353.949 225.475C354.023 224.412 354.224 223.238 354.554 221.955C354.921 220.672 355.398 219.645 355.984 218.875C356.571 218.068 357.414 217.39 358.514 216.84C359.651 216.29 361.008 216.015 362.584 216.015C365.444 216.015 367.571 216.73 368.964 218.16C370.358 219.59 371.219 221.753 371.549 224.65H374.079V213.54H371.274ZM402.371 245H408.256V242.25H404.956V221.57C404.956 215.703 401.326 212.77 394.066 212.77C391.866 212.77 390.032 212.99 388.566 213.43C387.099 213.87 385.962 214.567 385.156 215.52C384.386 216.437 383.817 217.427 383.451 218.49C383.121 219.553 382.901 220.873 382.791 222.45L386.036 222.615C386.182 220.342 386.769 218.673 387.796 217.61C388.859 216.547 390.949 216.015 394.066 216.015C398.759 216.015 401.106 217.867 401.106 221.57V227.07L390.931 227.73C387.227 227.987 384.716 228.812 383.396 230.205C382.076 231.598 381.416 233.872 381.416 237.025C381.416 239.922 382.094 242.103 383.451 243.57C384.844 245.037 387.264 245.77 390.711 245.77C394.597 245.77 398.154 244.322 401.381 241.425L402.371 245ZM391.261 242.635C389.024 242.635 387.447 242.195 386.531 241.315C385.614 240.398 385.156 239.023 385.156 237.19C385.156 234.697 385.559 233.028 386.366 232.185C387.209 231.305 388.804 230.792 391.151 230.645L401.106 230.04V238.345C398.099 241.205 394.817 242.635 391.261 242.635ZM415.422 216.29H418.722V242.25H415.422V245H425.872V242.25H422.572V220.085C425.982 217.372 429.557 216.015 433.297 216.015C435.387 216.015 436.872 216.528 437.752 217.555C438.669 218.582 439.127 220.25 439.127 222.56V242.25H435.827V245H446.277V242.25H442.977V222.615C442.977 219.242 442.262 216.767 440.832 215.19C439.439 213.577 437.129 212.77 433.902 212.77C429.832 212.77 425.946 214.2 422.242 217.06L421.307 213.54H415.422V216.29ZM475.458 245H487.118V242.25H483.268V230.975L494.323 207.6H496.743V204.85H487.283V207.6H490.308L481.288 227.07L472.268 207.6H475.293V204.85H465.833V207.6H468.198L479.308 230.975V242.25H475.458V245ZM514.015 242.525C512.255 242.525 510.752 242.268 509.505 241.755C508.295 241.205 507.36 240.563 506.7 239.83C506.077 239.06 505.582 238.033 505.215 236.75C504.848 235.43 504.628 234.257 504.555 233.23C504.482 232.167 504.445 230.847 504.445 229.27C504.445 227.693 504.482 226.392 504.555 225.365C504.628 224.302 504.848 223.128 505.215 221.845C505.582 220.525 506.077 219.498 506.7 218.765C507.36 217.995 508.295 217.353 509.505 216.84C510.752 216.29 512.255 216.015 514.015 216.015C515.775 216.015 517.26 216.29 518.47 216.84C519.717 217.353 520.652 217.995 521.275 218.765C521.935 219.498 522.448 220.525 522.815 221.845C523.182 223.128 523.402 224.302 523.475 225.365C523.548 226.392 523.585 227.693 523.585 229.27C523.585 230.847 523.548 232.167 523.475 233.23C523.402 234.257 523.182 235.43 522.815 236.75C522.448 238.033 521.935 239.06 521.275 239.83C520.652 240.563 519.717 241.205 518.47 241.755C517.26 242.268 515.775 242.525 514.015 242.525ZM514.015 245.77C515.702 245.77 517.205 245.605 518.525 245.275C519.882 244.945 521.018 244.523 521.935 244.01C522.888 243.46 523.695 242.763 524.355 241.92C525.052 241.077 525.583 240.215 525.95 239.335C526.353 238.455 526.665 237.428 526.885 236.255C527.105 235.045 527.252 233.927 527.325 232.9C527.398 231.837 527.435 230.627 527.435 229.27C527.435 227.913 527.398 226.722 527.325 225.695C527.252 224.632 527.105 223.513 526.885 222.34C526.665 221.13 526.353 220.085 525.95 219.205C525.583 218.325 525.052 217.463 524.355 216.62C523.695 215.777 522.888 215.098 521.935 214.585C521.018 214.035 519.882 213.595 518.525 213.265C517.205 212.935 515.702 212.77 514.015 212.77C512.328 212.77 510.807 212.935 509.45 213.265C508.13 213.595 506.993 214.035 506.04 214.585C505.123 215.098 504.317 215.777 503.62 216.62C502.96 217.463 502.428 218.325 502.025 219.205C501.658 220.085 501.365 221.13 501.145 222.34C500.925 223.513 500.778 224.632 500.705 225.695C500.632 226.722 500.595 227.913 500.595 229.27C500.595 230.627 500.632 231.837 500.705 232.9C500.778 233.927 500.925 235.045 501.145 236.255C501.365 237.428 501.658 238.455 502.025 239.335C502.428 240.215 502.96 241.077 503.62 241.92C504.317 242.763 505.123 243.46 506.04 244.01C506.993 244.523 508.13 244.945 509.45 245.275C510.807 245.605 512.328 245.77 514.015 245.77ZM537.357 213.54H534.057V216.29H537.357V236.035C537.357 239.445 538.035 241.92 539.392 243.46C540.785 245 543.205 245.77 546.652 245.77C550.869 245.77 554.902 244.175 558.752 240.985L559.852 245H565.737V242.25H562.437V213.54H555.287V216.29H558.587V237.74C555.104 240.93 551.4 242.525 547.477 242.525C545.167 242.525 543.535 242.03 542.582 241.04C541.665 240.013 541.207 238.327 541.207 235.98V213.54H537.357ZM578.788 213.54H576.203H572.903V216.29H576.203V242.25H572.903V245H584.453V242.25H580.053V223.605C582.546 219.022 586.378 216.638 591.548 216.455V212.77C586.414 212.953 582.564 215.227 579.998 219.59L578.788 213.54ZM625.928 229.875C628.018 229.875 629.815 229.637 631.318 229.16C632.858 228.683 634.05 228.097 634.893 227.4C635.737 226.667 636.397 225.713 636.873 224.54C637.35 223.367 637.643 222.248 637.753 221.185C637.9 220.122 637.973 218.857 637.973 217.39C637.973 215.483 637.845 213.888 637.588 212.605C637.332 211.322 636.818 210.038 636.048 208.755C635.278 207.472 634.05 206.5 632.363 205.84C630.677 205.18 628.532 204.85 625.928 204.85H614.928H611.628V207.6H614.928V242.25H611.628V245H623.288V242.25H618.888V229.875H625.928ZM618.888 226.63V208.095H625.928C627.688 208.095 629.118 208.315 630.218 208.755C631.355 209.195 632.18 209.892 632.693 210.845C633.243 211.762 633.592 212.715 633.738 213.705C633.922 214.658 634.013 215.887 634.013 217.39C634.013 218.893 633.922 220.122 633.738 221.075C633.592 222.028 633.243 222.982 632.693 223.935C632.18 224.852 631.355 225.53 630.218 225.97C629.118 226.41 627.688 226.63 625.928 226.63H618.888ZM650.438 213.54H647.853H644.553V216.29H647.853V242.25H644.553V245H656.103V242.25H651.703V223.605C654.196 219.022 658.028 216.638 663.198 216.455V212.77C658.065 212.953 654.215 215.227 651.648 219.59L650.438 213.54ZM680.465 242.525C678.705 242.525 677.202 242.268 675.955 241.755C674.745 241.205 673.81 240.563 673.15 239.83C672.527 239.06 672.032 238.033 671.665 236.75C671.298 235.43 671.078 234.257 671.005 233.23C670.932 232.167 670.895 230.847 670.895 229.27C670.895 227.693 670.932 226.392 671.005 225.365C671.078 224.302 671.298 223.128 671.665 221.845C672.032 220.525 672.527 219.498 673.15 218.765C673.81 217.995 674.745 217.353 675.955 216.84C677.202 216.29 678.705 216.015 680.465 216.015C682.225 216.015 683.71 216.29 684.92 216.84C686.167 217.353 687.102 217.995 687.725 218.765C688.385 219.498 688.898 220.525 689.265 221.845C689.632 223.128 689.852 224.302 689.925 225.365C689.998 226.392 690.035 227.693 690.035 229.27C690.035 230.847 689.998 232.167 689.925 233.23C689.852 234.257 689.632 235.43 689.265 236.75C688.898 238.033 688.385 239.06 687.725 239.83C687.102 240.563 686.167 241.205 684.92 241.755C683.71 242.268 682.225 242.525 680.465 242.525ZM680.465 245.77C682.152 245.77 683.655 245.605 684.975 245.275C686.332 244.945 687.468 244.523 688.385 244.01C689.338 243.46 690.145 242.763 690.805 241.92C691.502 241.077 692.033 240.215 692.4 239.335C692.803 238.455 693.115 237.428 693.335 236.255C693.555 235.045 693.702 233.927 693.775 232.9C693.848 231.837 693.885 230.627 693.885 229.27C693.885 227.913 693.848 226.722 693.775 225.695C693.702 224.632 693.555 223.513 693.335 222.34C693.115 221.13 692.803 220.085 692.4 219.205C692.033 218.325 691.502 217.463 690.805 216.62C690.145 215.777 689.338 215.098 688.385 214.585C687.468 214.035 686.332 213.595 684.975 213.265C683.655 212.935 682.152 212.77 680.465 212.77C678.778 212.77 677.257 212.935 675.9 213.265C674.58 213.595 673.443 214.035 672.49 214.585C671.573 215.098 670.767 215.777 670.07 216.62C669.41 217.463 668.878 218.325 668.475 219.205C668.108 220.085 667.815 221.13 667.595 222.34C667.375 223.513 667.228 224.632 667.155 225.695C667.082 226.722 667.045 227.913 667.045 229.27C667.045 230.627 667.082 231.837 667.155 232.9C667.228 233.927 667.375 235.045 667.595 236.255C667.815 237.428 668.108 238.455 668.475 239.335C668.878 240.215 669.41 241.077 670.07 241.92C670.767 242.763 671.573 243.46 672.49 244.01C673.443 244.523 674.58 244.945 675.9 245.275C677.257 245.605 678.778 245.77 680.465 245.77ZM700.507 216.29H703.807V249.29C703.807 251.013 703.55 252.223 703.037 252.92C702.56 253.617 701.552 254.038 700.012 254.185L696.657 254.46V257.485H700.012C703.129 257.485 705.182 256.825 706.172 255.505C707.162 254.222 707.657 252.15 707.657 249.29V213.54H700.507V216.29ZM706.282 208.04C707.345 208.04 708.024 207.783 708.317 207.27C708.61 206.757 708.757 206.042 708.757 205.125C708.757 204.502 708.72 204.025 708.647 203.695C708.574 203.328 708.335 202.98 707.932 202.65C707.565 202.32 707.015 202.155 706.282 202.155C705.585 202.155 705.054 202.32 704.687 202.65C704.32 202.98 704.1 203.328 704.027 203.695C703.954 204.025 703.917 204.502 703.917 205.125C703.917 205.712 703.954 206.188 704.027 206.555C704.1 206.885 704.32 207.215 704.687 207.545C705.054 207.875 705.585 208.04 706.282 208.04ZM731.228 245.77C733.575 245.77 735.537 245.495 737.113 244.945C738.727 244.395 739.937 243.607 740.743 242.58C741.587 241.517 742.192 240.435 742.558 239.335C742.925 238.198 743.182 236.842 743.328 235.265L740.138 235.1C739.918 237.52 739.185 239.372 737.938 240.655C736.692 241.902 734.418 242.525 731.118 242.525C727.488 242.525 725.05 241.59 723.803 239.72C722.593 237.813 721.97 234.623 721.933 230.15H743.823V229.27C743.823 227.327 743.75 225.658 743.603 224.265C743.457 222.835 743.127 221.35 742.613 219.81C742.1 218.27 741.385 217.023 740.468 216.07C739.588 215.117 738.342 214.328 736.728 213.705C735.152 213.082 733.245 212.77 731.008 212.77C728.772 212.77 726.847 213.082 725.233 213.705C723.62 214.328 722.355 215.117 721.438 216.07C720.522 217.023 719.807 218.27 719.293 219.81C718.78 221.35 718.45 222.835 718.303 224.265C718.157 225.658 718.083 227.327 718.083 229.27C718.083 235.027 718.982 239.225 720.778 241.865C722.612 244.468 726.095 245.77 731.228 245.77ZM730.953 216.015C732.823 216.015 734.363 216.29 735.573 216.84C736.82 217.39 737.737 218.233 738.323 219.37C738.91 220.47 739.313 221.607 739.533 222.78C739.753 223.953 739.882 225.402 739.918 227.125H721.933C721.97 225.475 722.098 224.063 722.318 222.89C722.575 221.717 722.997 220.58 723.583 219.48C724.207 218.343 725.123 217.482 726.333 216.895C727.58 216.308 729.12 216.015 730.953 216.015ZM771.689 213.54L771.744 216.95C769.911 214.163 767.014 212.77 763.054 212.77C760.928 212.77 759.076 213.082 757.499 213.705C755.959 214.292 754.731 215.062 753.814 216.015C752.934 216.968 752.219 218.197 751.669 219.7C751.156 221.203 750.808 222.688 750.624 224.155C750.478 225.622 750.404 227.327 750.404 229.27C750.404 231.213 750.478 232.9 750.624 234.33C750.771 235.723 751.101 237.19 751.614 238.73C752.128 240.27 752.824 241.517 753.704 242.47C754.621 243.423 755.886 244.212 757.499 244.835C759.149 245.458 761.093 245.77 763.329 245.77C765.566 245.77 767.436 245.55 768.939 245.11C770.443 244.67 771.598 243.992 772.404 243.075C773.211 242.122 773.779 241.113 774.109 240.05C774.476 238.987 774.714 237.667 774.824 236.09L771.689 235.925C771.543 238.198 770.901 239.867 769.764 240.93C768.664 241.993 766.501 242.525 763.274 242.525C761.881 242.525 760.671 242.36 759.644 242.03C758.618 241.7 757.774 241.187 757.114 240.49C756.491 239.793 755.978 239.078 755.574 238.345C755.171 237.612 754.878 236.677 754.694 235.54C754.511 234.403 754.383 233.395 754.309 232.515C754.273 231.635 754.254 230.553 754.254 229.27C754.254 227.767 754.291 226.502 754.364 225.475C754.438 224.412 754.639 223.238 754.969 221.955C755.336 220.672 755.813 219.645 756.399 218.875C756.986 218.068 757.829 217.39 758.929 216.84C760.066 216.29 761.423 216.015 762.999 216.015C765.859 216.015 767.986 216.73 769.379 218.16C770.773 219.59 771.634 221.753 771.964 224.65H774.494V213.54H771.689ZM780.236 216.29H785.186V238.125C785.186 239.042 785.204 239.812 785.241 240.435C785.314 241.058 785.461 241.737 785.681 242.47C785.901 243.203 786.194 243.79 786.561 244.23C786.964 244.67 787.514 245.037 788.211 245.33C788.944 245.623 789.806 245.77 790.796 245.77C792.116 245.77 793.692 245.513 795.526 245L795.031 242.305C793.747 242.598 792.739 242.745 792.006 242.745C790.942 242.745 790.172 242.397 789.696 241.7C789.256 241.003 789.036 239.812 789.036 238.125V216.29H794.811V213.54H789.036V206.5L785.186 207.27V213.54H780.236V216.29Z" fill="white"/>
<path d="M104.48 253L81.6 228.8V112.2L104.48 88H166.52L189.4 112.2V228.8L166.52 253H104.48ZM113.06 234.08H157.72L169.16 222.42V118.58L157.94 106.92H113.28L101.84 118.58V222.42L113.06 234.08Z" fill="white"/>
<line x1="238.5" y1="88" x2="238.5" y2="158" stroke="white" stroke-width="5"/>
<line x1="238.5" y1="183" x2="238.5" y2="253" stroke="white" stroke-width="5"/>
<circle cx="238.5" cy="170.5" r="3.5" fill="white"/>
</svg>
