<svg width="833" height="251" viewBox="0 0 833 251" fill="none" xmlns="http://www.w3.org/2000/svg">
<path d="M235.08 131L222.6 117.8V54.2L235.08 41H268.92L281.4 54.2V117.8L268.92 131H235.08ZM239.76 120.68H264.12L270.36 114.32V57.68L264.24 51.32H239.88L233.64 57.68V114.32L239.76 120.68ZM293.447 50.6V41H318.887V50.6H310.007L327.407 117.8L344.807 50.6H339.647V41H365.567V50.6H360.287L377.687 117.8L395.087 50.6H386.327V41H411.767V50.6H406.127L385.367 131H370.607L352.607 61.52L334.607 131H319.847L298.967 50.6H293.447ZM423.811 41H452.851V50.6H443.251V121.4H469.411V107.48H478.531V131H423.811V121.4H432.211V50.6H423.811V41ZM504.291 41H536.331V50.6H530.811L551.931 121.4H557.931V131H532.491V121.4H540.891L535.371 102.92H505.251L499.731 121.4H508.131V131H482.691V121.4H488.691L509.811 50.6H504.291V41ZM520.251 52.4L508.131 93.32H532.491L520.251 52.4ZM622.158 69.32H612.198V58.76L604.998 51.32H586.638L580.398 57.68V74.24L586.278 80.24H611.238L623.358 92.96V117.8L610.878 131H580.638L568.158 117.8V102.68H578.118V113.24L585.438 120.68H606.198L612.318 114.32V96.44L606.558 90.56H581.598L569.358 77.72V54.2L581.838 41H609.678L622.158 54.2V69.32ZM641.311 41H698.431V64.52H688.831V50.6H660.751V81.2H688.831V90.8H660.751V121.4H688.831V107.48H698.431V131H641.311V121.4H649.711V50.6H641.311V41ZM717.6 41H765.6L778.08 54.2V80.6L765.6 93.8L778.44 121.4H784.68V131H762.12V121.4H766.8L753.96 93.8H737.04V121.4H744.24V131H717.6V121.4H726V50.6H717.6V41ZM737.04 51.32V83.48H760.8L767.76 76.4V58.4L760.92 51.32H737.04Z" fill="#890B7C"/>
<path d="M256.555 202V197.27C258.792 200.937 262.477 202.77 267.61 202.77C272.23 202.77 275.475 201.817 277.345 199.91C279.252 198.003 280.205 195.18 280.205 191.44C280.205 188.03 279.417 185.573 277.84 184.07C276.263 182.53 273.458 181.375 269.425 180.605L264.53 179.67C261.817 179.157 260.038 178.423 259.195 177.47C258.352 176.517 257.93 174.903 257.93 172.63C257.93 169.843 258.535 167.772 259.745 166.415C260.955 165.058 263.228 164.38 266.565 164.38C272.285 164.38 275.512 166.8 276.245 171.64H279.215V161.85H276.245V166.14C274.265 162.767 270.763 161.08 265.74 161.08C261.413 161.08 258.37 162.07 256.61 164.05C254.85 166.03 253.97 168.908 253.97 172.685C253.97 176.132 254.703 178.588 256.17 180.055C257.673 181.522 260.405 182.64 264.365 183.41L269.315 184.345C271.955 184.858 273.77 185.628 274.76 186.655C275.75 187.682 276.245 189.46 276.245 191.99C276.245 194.483 275.548 196.353 274.155 197.6C272.798 198.847 270.433 199.47 267.06 199.47C263.577 199.47 260.973 198.608 259.25 196.885C257.527 195.125 256.628 192.87 256.555 190.12H253.585V202H256.555ZM307.274 170.54L307.329 173.95C305.496 171.163 302.599 169.77 298.639 169.77C296.513 169.77 294.661 170.082 293.084 170.705C291.544 171.292 290.316 172.062 289.399 173.015C288.519 173.968 287.804 175.197 287.254 176.7C286.741 178.203 286.393 179.688 286.209 181.155C286.063 182.622 285.989 184.327 285.989 186.27C285.989 188.213 286.063 189.9 286.209 191.33C286.356 192.723 286.686 194.19 287.199 195.73C287.713 197.27 288.409 198.517 289.289 199.47C290.206 200.423 291.471 201.212 293.084 201.835C294.734 202.458 296.678 202.77 298.914 202.77C301.151 202.77 303.021 202.55 304.524 202.11C306.028 201.67 307.183 200.992 307.989 200.075C308.796 199.122 309.364 198.113 309.694 197.05C310.061 195.987 310.299 194.667 310.409 193.09L307.274 192.925C307.128 195.198 306.486 196.867 305.349 197.93C304.249 198.993 302.086 199.525 298.859 199.525C297.466 199.525 296.256 199.36 295.229 199.03C294.203 198.7 293.359 198.187 292.699 197.49C292.076 196.793 291.563 196.078 291.159 195.345C290.756 194.612 290.463 193.677 290.279 192.54C290.096 191.403 289.968 190.395 289.894 189.515C289.858 188.635 289.839 187.553 289.839 186.27C289.839 184.767 289.876 183.502 289.949 182.475C290.023 181.412 290.224 180.238 290.554 178.955C290.921 177.672 291.398 176.645 291.984 175.875C292.571 175.068 293.414 174.39 294.514 173.84C295.651 173.29 297.008 173.015 298.584 173.015C301.444 173.015 303.571 173.73 304.964 175.16C306.358 176.59 307.219 178.753 307.549 181.65H310.079V170.54H307.274ZM338.371 202H344.256V199.25H340.956V178.57C340.956 172.703 337.326 169.77 330.066 169.77C327.866 169.77 326.032 169.99 324.566 170.43C323.099 170.87 321.962 171.567 321.156 172.52C320.386 173.437 319.817 174.427 319.451 175.49C319.121 176.553 318.901 177.873 318.791 179.45L322.036 179.615C322.182 177.342 322.769 175.673 323.796 174.61C324.859 173.547 326.949 173.015 330.066 173.015C334.759 173.015 337.106 174.867 337.106 178.57V184.07L326.931 184.73C323.227 184.987 320.716 185.812 319.396 187.205C318.076 188.598 317.416 190.872 317.416 194.025C317.416 196.922 318.094 199.103 319.451 200.57C320.844 202.037 323.264 202.77 326.711 202.77C330.597 202.77 334.154 201.322 337.381 198.425L338.371 202ZM327.261 199.635C325.024 199.635 323.447 199.195 322.531 198.315C321.614 197.398 321.156 196.023 321.156 194.19C321.156 191.697 321.559 190.028 322.366 189.185C323.209 188.305 324.804 187.792 327.151 187.645L337.106 187.04V195.345C334.099 198.205 330.817 199.635 327.261 199.635ZM351.422 173.29H354.722V199.25H351.422V202H361.872V199.25H358.572V177.085C361.982 174.372 365.557 173.015 369.297 173.015C371.387 173.015 372.872 173.528 373.752 174.555C374.669 175.582 375.127 177.25 375.127 179.56V199.25H371.827V202H382.277V199.25H378.977V179.615C378.977 176.242 378.262 173.767 376.832 172.19C375.439 170.577 373.129 169.77 369.902 169.77C365.832 169.77 361.946 171.2 358.242 174.06L357.307 170.54H351.422V173.29ZM411.458 202H423.118V199.25H419.268V187.975L430.323 164.6H432.743V161.85H423.283V164.6H426.308L417.288 184.07L408.268 164.6H411.293V161.85H401.833V164.6H404.198L415.308 187.975V199.25H411.458V202ZM450.015 199.525C448.255 199.525 446.752 199.268 445.505 198.755C444.295 198.205 443.36 197.563 442.7 196.83C442.077 196.06 441.582 195.033 441.215 193.75C440.848 192.43 440.628 191.257 440.555 190.23C440.482 189.167 440.445 187.847 440.445 186.27C440.445 184.693 440.482 183.392 440.555 182.365C440.628 181.302 440.848 180.128 441.215 178.845C441.582 177.525 442.077 176.498 442.7 175.765C443.36 174.995 444.295 174.353 445.505 173.84C446.752 173.29 448.255 173.015 450.015 173.015C451.775 173.015 453.26 173.29 454.47 173.84C455.717 174.353 456.652 174.995 457.275 175.765C457.935 176.498 458.448 177.525 458.815 178.845C459.182 180.128 459.402 181.302 459.475 182.365C459.548 183.392 459.585 184.693 459.585 186.27C459.585 187.847 459.548 189.167 459.475 190.23C459.402 191.257 459.182 192.43 458.815 193.75C458.448 195.033 457.935 196.06 457.275 196.83C456.652 197.563 455.717 198.205 454.47 198.755C453.26 199.268 451.775 199.525 450.015 199.525ZM450.015 202.77C451.702 202.77 453.205 202.605 454.525 202.275C455.882 201.945 457.018 201.523 457.935 201.01C458.888 200.46 459.695 199.763 460.355 198.92C461.052 198.077 461.583 197.215 461.95 196.335C462.353 195.455 462.665 194.428 462.885 193.255C463.105 192.045 463.252 190.927 463.325 189.9C463.398 188.837 463.435 187.627 463.435 186.27C463.435 184.913 463.398 183.722 463.325 182.695C463.252 181.632 463.105 180.513 462.885 179.34C462.665 178.13 462.353 177.085 461.95 176.205C461.583 175.325 461.052 174.463 460.355 173.62C459.695 172.777 458.888 172.098 457.935 171.585C457.018 171.035 455.882 170.595 454.525 170.265C453.205 169.935 451.702 169.77 450.015 169.77C448.328 169.77 446.807 169.935 445.45 170.265C444.13 170.595 442.993 171.035 442.04 171.585C441.123 172.098 440.317 172.777 439.62 173.62C438.96 174.463 438.428 175.325 438.025 176.205C437.658 177.085 437.365 178.13 437.145 179.34C436.925 180.513 436.778 181.632 436.705 182.695C436.632 183.722 436.595 184.913 436.595 186.27C436.595 187.627 436.632 188.837 436.705 189.9C436.778 190.927 436.925 192.045 437.145 193.255C437.365 194.428 437.658 195.455 438.025 196.335C438.428 197.215 438.96 198.077 439.62 198.92C440.317 199.763 441.123 200.46 442.04 201.01C442.993 201.523 444.13 201.945 445.45 202.275C446.807 202.605 448.328 202.77 450.015 202.77ZM473.357 170.54H470.057V173.29H473.357V193.035C473.357 196.445 474.035 198.92 475.392 200.46C476.785 202 479.205 202.77 482.652 202.77C486.869 202.77 490.902 201.175 494.752 197.985L495.852 202H501.737V199.25H498.437V170.54H491.287V173.29H494.587V194.74C491.104 197.93 487.4 199.525 483.477 199.525C481.167 199.525 479.535 199.03 478.582 198.04C477.665 197.013 477.207 195.327 477.207 192.98V170.54H473.357ZM514.788 170.54H512.203H508.903V173.29H512.203V199.25H508.903V202H520.453V199.25H516.053V180.605C518.546 176.022 522.378 173.638 527.548 173.455V169.77C522.414 169.953 518.564 172.227 515.998 176.59L514.788 170.54ZM561.928 186.875C564.018 186.875 565.815 186.637 567.318 186.16C568.858 185.683 570.05 185.097 570.893 184.4C571.737 183.667 572.397 182.713 572.873 181.54C573.35 180.367 573.643 179.248 573.753 178.185C573.9 177.122 573.973 175.857 573.973 174.39C573.973 172.483 573.845 170.888 573.588 169.605C573.332 168.322 572.818 167.038 572.048 165.755C571.278 164.472 570.05 163.5 568.363 162.84C566.677 162.18 564.532 161.85 561.928 161.85H550.928H547.628V164.6H550.928V199.25H547.628V202H559.288V199.25H554.888V186.875H561.928ZM554.888 183.63V165.095H561.928C563.688 165.095 565.118 165.315 566.218 165.755C567.355 166.195 568.18 166.892 568.693 167.845C569.243 168.762 569.592 169.715 569.738 170.705C569.922 171.658 570.013 172.887 570.013 174.39C570.013 175.893 569.922 177.122 569.738 178.075C569.592 179.028 569.243 179.982 568.693 180.935C568.18 181.852 567.355 182.53 566.218 182.97C565.118 183.41 563.688 183.63 561.928 183.63H554.888ZM586.438 170.54H583.853H580.553V173.29H583.853V199.25H580.553V202H592.103V199.25H587.703V180.605C590.196 176.022 594.028 173.638 599.198 173.455V169.77C594.065 169.953 590.215 172.227 587.648 176.59L586.438 170.54ZM616.465 199.525C614.705 199.525 613.202 199.268 611.955 198.755C610.745 198.205 609.81 197.563 609.15 196.83C608.527 196.06 608.032 195.033 607.665 193.75C607.298 192.43 607.078 191.257 607.005 190.23C606.932 189.167 606.895 187.847 606.895 186.27C606.895 184.693 606.932 183.392 607.005 182.365C607.078 181.302 607.298 180.128 607.665 178.845C608.032 177.525 608.527 176.498 609.15 175.765C609.81 174.995 610.745 174.353 611.955 173.84C613.202 173.29 614.705 173.015 616.465 173.015C618.225 173.015 619.71 173.29 620.92 173.84C622.167 174.353 623.102 174.995 623.725 175.765C624.385 176.498 624.898 177.525 625.265 178.845C625.632 180.128 625.852 181.302 625.925 182.365C625.998 183.392 626.035 184.693 626.035 186.27C626.035 187.847 625.998 189.167 625.925 190.23C625.852 191.257 625.632 192.43 625.265 193.75C624.898 195.033 624.385 196.06 623.725 196.83C623.102 197.563 622.167 198.205 620.92 198.755C619.71 199.268 618.225 199.525 616.465 199.525ZM616.465 202.77C618.152 202.77 619.655 202.605 620.975 202.275C622.332 201.945 623.468 201.523 624.385 201.01C625.338 200.46 626.145 199.763 626.805 198.92C627.502 198.077 628.033 197.215 628.4 196.335C628.803 195.455 629.115 194.428 629.335 193.255C629.555 192.045 629.702 190.927 629.775 189.9C629.848 188.837 629.885 187.627 629.885 186.27C629.885 184.913 629.848 183.722 629.775 182.695C629.702 181.632 629.555 180.513 629.335 179.34C629.115 178.13 628.803 177.085 628.4 176.205C628.033 175.325 627.502 174.463 626.805 173.62C626.145 172.777 625.338 172.098 624.385 171.585C623.468 171.035 622.332 170.595 620.975 170.265C619.655 169.935 618.152 169.77 616.465 169.77C614.778 169.77 613.257 169.935 611.9 170.265C610.58 170.595 609.443 171.035 608.49 171.585C607.573 172.098 606.767 172.777 606.07 173.62C605.41 174.463 604.878 175.325 604.475 176.205C604.108 177.085 603.815 178.13 603.595 179.34C603.375 180.513 603.228 181.632 603.155 182.695C603.082 183.722 603.045 184.913 603.045 186.27C603.045 187.627 603.082 188.837 603.155 189.9C603.228 190.927 603.375 192.045 603.595 193.255C603.815 194.428 604.108 195.455 604.475 196.335C604.878 197.215 605.41 198.077 606.07 198.92C606.767 199.763 607.573 200.46 608.49 201.01C609.443 201.523 610.58 201.945 611.9 202.275C613.257 202.605 614.778 202.77 616.465 202.77ZM636.507 173.29H639.807V206.29C639.807 208.013 639.55 209.223 639.037 209.92C638.56 210.617 637.552 211.038 636.012 211.185L632.657 211.46V214.485H636.012C639.129 214.485 641.182 213.825 642.172 212.505C643.162 211.222 643.657 209.15 643.657 206.29V170.54H636.507V173.29ZM642.282 165.04C643.345 165.04 644.024 164.783 644.317 164.27C644.61 163.757 644.757 163.042 644.757 162.125C644.757 161.502 644.72 161.025 644.647 160.695C644.574 160.328 644.335 159.98 643.932 159.65C643.565 159.32 643.015 159.155 642.282 159.155C641.585 159.155 641.054 159.32 640.687 159.65C640.32 159.98 640.1 160.328 640.027 160.695C639.954 161.025 639.917 161.502 639.917 162.125C639.917 162.712 639.954 163.188 640.027 163.555C640.1 163.885 640.32 164.215 640.687 164.545C641.054 164.875 641.585 165.04 642.282 165.04ZM667.228 202.77C669.575 202.77 671.537 202.495 673.113 201.945C674.727 201.395 675.937 200.607 676.743 199.58C677.587 198.517 678.192 197.435 678.558 196.335C678.925 195.198 679.182 193.842 679.328 192.265L676.138 192.1C675.918 194.52 675.185 196.372 673.938 197.655C672.692 198.902 670.418 199.525 667.118 199.525C663.488 199.525 661.05 198.59 659.803 196.72C658.593 194.813 657.97 191.623 657.933 187.15H679.823V186.27C679.823 184.327 679.75 182.658 679.603 181.265C679.457 179.835 679.127 178.35 678.613 176.81C678.1 175.27 677.385 174.023 676.468 173.07C675.588 172.117 674.342 171.328 672.728 170.705C671.152 170.082 669.245 169.77 667.008 169.77C664.772 169.77 662.847 170.082 661.233 170.705C659.62 171.328 658.355 172.117 657.438 173.07C656.522 174.023 655.807 175.27 655.293 176.81C654.78 178.35 654.45 179.835 654.303 181.265C654.157 182.658 654.083 184.327 654.083 186.27C654.083 192.027 654.982 196.225 656.778 198.865C658.612 201.468 662.095 202.77 667.228 202.77ZM666.953 173.015C668.823 173.015 670.363 173.29 671.573 173.84C672.82 174.39 673.737 175.233 674.323 176.37C674.91 177.47 675.313 178.607 675.533 179.78C675.753 180.953 675.882 182.402 675.918 184.125H657.933C657.97 182.475 658.098 181.063 658.318 179.89C658.575 178.717 658.997 177.58 659.583 176.48C660.207 175.343 661.123 174.482 662.333 173.895C663.58 173.308 665.12 173.015 666.953 173.015ZM707.689 170.54L707.744 173.95C705.911 171.163 703.014 169.77 699.054 169.77C696.928 169.77 695.076 170.082 693.499 170.705C691.959 171.292 690.731 172.062 689.814 173.015C688.934 173.968 688.219 175.197 687.669 176.7C687.156 178.203 686.808 179.688 686.624 181.155C686.478 182.622 686.404 184.327 686.404 186.27C686.404 188.213 686.478 189.9 686.624 191.33C686.771 192.723 687.101 194.19 687.614 195.73C688.128 197.27 688.824 198.517 689.704 199.47C690.621 200.423 691.886 201.212 693.499 201.835C695.149 202.458 697.093 202.77 699.329 202.77C701.566 202.77 703.436 202.55 704.939 202.11C706.443 201.67 707.598 200.992 708.404 200.075C709.211 199.122 709.779 198.113 710.109 197.05C710.476 195.987 710.714 194.667 710.824 193.09L707.689 192.925C707.543 195.198 706.901 196.867 705.764 197.93C704.664 198.993 702.501 199.525 699.274 199.525C697.881 199.525 696.671 199.36 695.644 199.03C694.618 198.7 693.774 198.187 693.114 197.49C692.491 196.793 691.978 196.078 691.574 195.345C691.171 194.612 690.878 193.677 690.694 192.54C690.511 191.403 690.383 190.395 690.309 189.515C690.273 188.635 690.254 187.553 690.254 186.27C690.254 184.767 690.291 183.502 690.364 182.475C690.438 181.412 690.639 180.238 690.969 178.955C691.336 177.672 691.813 176.645 692.399 175.875C692.986 175.068 693.829 174.39 694.929 173.84C696.066 173.29 697.423 173.015 698.999 173.015C701.859 173.015 703.986 173.73 705.379 175.16C706.773 176.59 707.634 178.753 707.964 181.65H710.494V170.54H707.689ZM716.236 173.29H721.186V195.125C721.186 196.042 721.204 196.812 721.241 197.435C721.314 198.058 721.461 198.737 721.681 199.47C721.901 200.203 722.194 200.79 722.561 201.23C722.964 201.67 723.514 202.037 724.211 202.33C724.944 202.623 725.806 202.77 726.796 202.77C728.116 202.77 729.692 202.513 731.526 202L731.031 199.305C729.747 199.598 728.739 199.745 728.006 199.745C726.942 199.745 726.172 199.397 725.696 198.7C725.256 198.003 725.036 196.812 725.036 195.125V173.29H730.811V170.54H725.036V163.5L721.186 164.27V170.54H716.236V173.29Z" fill="#890B7C"/>
<path d="M40.48 210L17.6 185.8V69.2L40.48 45H102.52L125.4 69.2V185.8L102.52 210H40.48ZM49.06 191.08H93.72L105.16 179.42V75.58L93.94 63.92H49.28L37.84 75.58V179.42L49.06 191.08Z" fill="#890B7C"/>
<line x1="174.5" y1="45" x2="174.5" y2="115" stroke="#890B7C" stroke-width="5"/>
<line x1="174.5" y1="140" x2="174.5" y2="210" stroke="#890B7C" stroke-width="5"/>
<circle cx="174.5" cy="127.5" r="3.5" fill="#890B7C"/>
</svg>
