<svg width="1002" height="323" viewBox="0 0 1002 323" fill="none" xmlns="http://www.w3.org/2000/svg">
<rect width="1002" height="323" fill="#890B7C"/>
<path d="M300.92 218L287.4 203.7V134.8L300.92 120.5H337.58L351.1 134.8V203.7L337.58 218H300.92ZM305.99 206.82H332.38L339.14 199.93V138.57L332.51 131.68H306.12L299.36 138.57V199.93L305.99 206.82ZM364.151 130.9V120.5H391.711V130.9H382.091L400.941 203.7L419.791 130.9H414.201V120.5H442.281V130.9H436.561L455.411 203.7L474.261 130.9H464.771V120.5H492.331V130.9H486.221L463.731 218H447.741L428.241 142.73L408.741 218H392.751L370.131 130.9H364.151ZM505.379 120.5H536.839V130.9H526.439V207.6H554.779V192.52H564.659V218H505.379V207.6H514.479V130.9H505.379V120.5ZM592.565 120.5H627.275V130.9H621.295L644.175 207.6H650.675V218H623.115V207.6H632.215L626.235 187.58H593.605L587.625 207.6H596.725V218H569.165V207.6H575.665L598.545 130.9H592.565V120.5ZM609.855 132.85L596.725 177.18H623.115L609.855 132.85ZM720.254 151.18H709.464V139.74L701.664 131.68H681.774L675.014 138.57V156.51L681.384 163.01H708.424L721.554 176.79V203.7L708.034 218H675.274L661.754 203.7V187.32H672.544V198.76L680.474 206.82H702.964L709.594 199.93V180.56L703.354 174.19H676.314L663.054 160.28V134.8L676.574 120.5H706.734L720.254 134.8V151.18ZM741.004 120.5H802.884V145.98H792.484V130.9H762.064V164.05H792.484V174.45H762.064V207.6H792.484V192.52H802.884V218H741.004V207.6H750.104V130.9H741.004V120.5ZM823.65 120.5H875.65L889.17 134.8V163.4L875.65 177.7L889.56 207.6H896.32V218H871.88V207.6H876.95L863.04 177.7H844.71V207.6H852.51V218H823.65V207.6H832.75V130.9H823.65V120.5ZM844.71 131.68V166.52H870.45L877.99 158.85V139.35L870.58 131.68H844.71Z" fill="white"/>
<path d="M300.92 218L300.193 218.687L300.489 219H300.92V218ZM287.4 203.7H286.4V204.098L286.673 204.387L287.4 203.7ZM287.4 134.8L286.673 134.113L286.4 134.402V134.8H287.4ZM300.92 120.5V119.5H300.489L300.193 119.813L300.92 120.5ZM337.58 120.5L338.307 119.813L338.011 119.5H337.58V120.5ZM351.1 134.8H352.1V134.402L351.827 134.113L351.1 134.8ZM351.1 203.7L351.827 204.387L352.1 204.098V203.7H351.1ZM337.58 218V219H338.011L338.307 218.687L337.58 218ZM305.99 206.82L305.269 207.513L305.564 207.82H305.99V206.82ZM332.38 206.82V207.82H332.8L333.094 207.52L332.38 206.82ZM339.14 199.93L339.854 200.63L340.14 200.339V199.93H339.14ZM339.14 138.57H340.14V138.167L339.861 137.877L339.14 138.57ZM332.51 131.68L333.231 130.987L332.936 130.68H332.51V131.68ZM306.12 131.68V130.68H305.7L305.406 130.98L306.12 131.68ZM299.36 138.57L298.646 137.87L298.36 138.161V138.57H299.36ZM299.36 199.93H298.36V200.333L298.639 200.623L299.36 199.93ZM301.647 217.313L288.127 203.013L286.673 204.387L300.193 218.687L301.647 217.313ZM288.4 203.7V134.8H286.4V203.7H288.4ZM288.127 135.487L301.647 121.187L300.193 119.813L286.673 134.113L288.127 135.487ZM300.92 121.5H337.58V119.5H300.92V121.5ZM336.853 121.187L350.373 135.487L351.827 134.113L338.307 119.813L336.853 121.187ZM350.1 134.8V203.7H352.1V134.8H350.1ZM350.373 203.013L336.853 217.313L338.307 218.687L351.827 204.387L350.373 203.013ZM337.58 217H300.92V219H337.58V217ZM305.99 207.82H332.38V205.82H305.99V207.82ZM333.094 207.52L339.854 200.63L338.426 199.23L331.666 206.12L333.094 207.52ZM340.14 199.93V138.57H338.14V199.93H340.14ZM339.861 137.877L333.231 130.987L331.789 132.373L338.419 139.263L339.861 137.877ZM332.51 130.68H306.12V132.68H332.51V130.68ZM305.406 130.98L298.646 137.87L300.074 139.27L306.834 132.38L305.406 130.98ZM298.36 138.57V199.93H300.36V138.57H298.36ZM298.639 200.623L305.269 207.513L306.711 206.127L300.081 199.237L298.639 200.623ZM364.151 130.9H363.151V131.9H364.151V130.9ZM364.151 120.5V119.5H363.151V120.5H364.151ZM391.711 120.5H392.711V119.5H391.711V120.5ZM391.711 130.9V131.9H392.711V130.9H391.711ZM382.091 130.9V129.9H380.799L381.123 131.151L382.091 130.9ZM400.941 203.7L399.973 203.951L400.941 207.689L401.909 203.951L400.941 203.7ZM419.791 130.9L420.759 131.151L421.083 129.9H419.791V130.9ZM414.201 130.9H413.201V131.9H414.201V130.9ZM414.201 120.5V119.5H413.201V120.5H414.201ZM442.281 120.5H443.281V119.5H442.281V120.5ZM442.281 130.9V131.9H443.281V130.9H442.281ZM436.561 130.9V129.9H435.269L435.593 131.151L436.561 130.9ZM455.411 203.7L454.443 203.951L455.411 207.689L456.379 203.951L455.411 203.7ZM474.261 130.9L475.229 131.151L475.553 129.9H474.261V130.9ZM464.771 130.9H463.771V131.9H464.771V130.9ZM464.771 120.5V119.5H463.771V120.5H464.771ZM492.331 120.5H493.331V119.5H492.331V120.5ZM492.331 130.9V131.9H493.331V130.9H492.331ZM486.221 130.9V129.9H485.446L485.253 130.65L486.221 130.9ZM463.731 218V219H464.505L464.699 218.25L463.731 218ZM447.741 218L446.773 218.251L446.967 219H447.741V218ZM428.241 142.73L429.209 142.479L428.241 138.743L427.273 142.479L428.241 142.73ZM408.741 218V219H409.515L409.709 218.251L408.741 218ZM392.751 218L391.783 218.251L391.977 219H392.751V218ZM370.131 130.9L371.099 130.649L370.904 129.9H370.131V130.9ZM365.151 130.9V120.5H363.151V130.9H365.151ZM364.151 121.5H391.711V119.5H364.151V121.5ZM390.711 120.5V130.9H392.711V120.5H390.711ZM391.711 129.9H382.091V131.9H391.711V129.9ZM381.123 131.151L399.973 203.951L401.909 203.449L383.059 130.649L381.123 131.151ZM401.909 203.951L420.759 131.151L418.823 130.649L399.973 203.449L401.909 203.951ZM419.791 129.9H414.201V131.9H419.791V129.9ZM415.201 130.9V120.5H413.201V130.9H415.201ZM414.201 121.5H442.281V119.5H414.201V121.5ZM441.281 120.5V130.9H443.281V120.5H441.281ZM442.281 129.9H436.561V131.9H442.281V129.9ZM435.593 131.151L454.443 203.951L456.379 203.449L437.529 130.649L435.593 131.151ZM456.379 203.951L475.229 131.151L473.293 130.649L454.443 203.449L456.379 203.951ZM474.261 129.9H464.771V131.9H474.261V129.9ZM465.771 130.9V120.5H463.771V130.9H465.771ZM464.771 121.5H492.331V119.5H464.771V121.5ZM491.331 120.5V130.9H493.331V120.5H491.331ZM492.331 129.9H486.221V131.9H492.331V129.9ZM485.253 130.65L462.763 217.75L464.699 218.25L487.189 131.15L485.253 130.65ZM463.731 217H447.741V219H463.731V217ZM448.709 217.749L429.209 142.479L427.273 142.981L446.773 218.251L448.709 217.749ZM427.273 142.479L407.773 217.749L409.709 218.251L429.209 142.981L427.273 142.479ZM408.741 217H392.751V219H408.741V217ZM393.719 217.749L371.099 130.649L369.163 131.151L391.783 218.251L393.719 217.749ZM370.131 129.9H364.151V131.9H370.131V129.9ZM505.379 120.5V119.5H504.379V120.5H505.379ZM536.839 120.5H537.839V119.5H536.839V120.5ZM536.839 130.9V131.9H537.839V130.9H536.839ZM526.439 130.9V129.9H525.439V130.9H526.439ZM526.439 207.6H525.439V208.6H526.439V207.6ZM554.779 207.6V208.6H555.779V207.6H554.779ZM554.779 192.52V191.52H553.779V192.52H554.779ZM564.659 192.52H565.659V191.52H564.659V192.52ZM564.659 218V219H565.659V218H564.659ZM505.379 218H504.379V219H505.379V218ZM505.379 207.6V206.6H504.379V207.6H505.379ZM514.479 207.6V208.6H515.479V207.6H514.479ZM514.479 130.9H515.479V129.9H514.479V130.9ZM505.379 130.9H504.379V131.9H505.379V130.9ZM505.379 121.5H536.839V119.5H505.379V121.5ZM535.839 120.5V130.9H537.839V120.5H535.839ZM536.839 129.9H526.439V131.9H536.839V129.9ZM525.439 130.9V207.6H527.439V130.9H525.439ZM526.439 208.6H554.779V206.6H526.439V208.6ZM555.779 207.6V192.52H553.779V207.6H555.779ZM554.779 193.52H564.659V191.52H554.779V193.52ZM563.659 192.52V218H565.659V192.52H563.659ZM564.659 217H505.379V219H564.659V217ZM506.379 218V207.6H504.379V218H506.379ZM505.379 208.6H514.479V206.6H505.379V208.6ZM515.479 207.6V130.9H513.479V207.6H515.479ZM514.479 129.9H505.379V131.9H514.479V129.9ZM506.379 130.9V120.5H504.379V130.9H506.379ZM592.565 120.5V119.5H591.565V120.5H592.565ZM627.275 120.5H628.275V119.5H627.275V120.5ZM627.275 130.9V131.9H628.275V130.9H627.275ZM621.295 130.9V129.9H619.953L620.337 131.186L621.295 130.9ZM644.175 207.6L643.217 207.886L643.43 208.6H644.175V207.6ZM650.675 207.6H651.675V206.6H650.675V207.6ZM650.675 218V219H651.675V218H650.675ZM623.115 218H622.115V219H623.115V218ZM623.115 207.6V206.6H622.115V207.6H623.115ZM632.215 207.6V208.6H633.557L633.173 207.314L632.215 207.6ZM626.235 187.58L627.193 187.294L626.98 186.58H626.235V187.58ZM593.605 187.58V186.58H592.86L592.647 187.294L593.605 187.58ZM587.625 207.6L586.667 207.314L586.282 208.6H587.625V207.6ZM596.725 207.6H597.725V206.6H596.725V207.6ZM596.725 218V219H597.725V218H596.725ZM569.165 218H568.165V219H569.165V218ZM569.165 207.6V206.6H568.165V207.6H569.165ZM575.665 207.6V208.6H576.41L576.623 207.886L575.665 207.6ZM598.545 130.9L599.503 131.186L599.887 129.9H598.545V130.9ZM592.565 130.9H591.565V131.9H592.565V130.9ZM609.855 132.85L610.813 132.563L609.85 129.345L608.896 132.566L609.855 132.85ZM596.725 177.18L595.766 176.896L595.386 178.18H596.725V177.18ZM623.115 177.18V178.18H624.458L624.073 176.893L623.115 177.18ZM592.565 121.5H627.275V119.5H592.565V121.5ZM626.275 120.5V130.9H628.275V120.5H626.275ZM627.275 129.9H621.295V131.9H627.275V129.9ZM620.337 131.186L643.217 207.886L645.133 207.314L622.253 130.614L620.337 131.186ZM644.175 208.6H650.675V206.6H644.175V208.6ZM649.675 207.6V218H651.675V207.6H649.675ZM650.675 217H623.115V219H650.675V217ZM624.115 218V207.6H622.115V218H624.115ZM623.115 208.6H632.215V206.6H623.115V208.6ZM633.173 207.314L627.193 187.294L625.277 187.866L631.257 207.886L633.173 207.314ZM626.235 186.58H593.605V188.58H626.235V186.58ZM592.647 187.294L586.667 207.314L588.583 207.886L594.563 187.866L592.647 187.294ZM587.625 208.6H596.725V206.6H587.625V208.6ZM595.725 207.6V218H597.725V207.6H595.725ZM596.725 217H569.165V219H596.725V217ZM570.165 218V207.6H568.165V218H570.165ZM569.165 208.6H575.665V206.6H569.165V208.6ZM576.623 207.886L599.503 131.186L597.587 130.614L574.707 207.314L576.623 207.886ZM598.545 129.9H592.565V131.9H598.545V129.9ZM593.565 130.9V120.5H591.565V130.9H593.565ZM608.896 132.566L595.766 176.896L597.684 177.464L610.814 133.134L608.896 132.566ZM596.725 178.18H623.115V176.18H596.725V178.18ZM624.073 176.893L610.813 132.563L608.897 133.137L622.157 177.467L624.073 176.893ZM720.254 151.18V152.18H721.254V151.18H720.254ZM709.464 151.18H708.464V152.18H709.464V151.18ZM709.464 139.74H710.464V139.335L710.183 139.045L709.464 139.74ZM701.664 131.68L702.383 130.985L702.088 130.68H701.664V131.68ZM681.774 131.68V130.68H681.354L681.06 130.98L681.774 131.68ZM675.014 138.57L674.3 137.87L674.014 138.161V138.57H675.014ZM675.014 156.51H674.014V156.918L674.3 157.21L675.014 156.51ZM681.384 163.01L680.67 163.71L680.964 164.01H681.384V163.01ZM708.424 163.01L709.148 162.32L708.853 162.01H708.424V163.01ZM721.554 176.79H722.554V176.39L722.278 176.1L721.554 176.79ZM721.554 203.7L722.281 204.387L722.554 204.098V203.7H721.554ZM708.034 218V219H708.465L708.761 218.687L708.034 218ZM675.274 218L674.548 218.687L674.844 219H675.274V218ZM661.754 203.7H660.754V204.098L661.028 204.387L661.754 203.7ZM661.754 187.32V186.32H660.754V187.32H661.754ZM672.544 187.32H673.544V186.32H672.544V187.32ZM672.544 198.76H671.544V199.169L671.831 199.461L672.544 198.76ZM680.474 206.82L679.761 207.521L680.055 207.82H680.474V206.82ZM702.964 206.82V207.82H703.39L703.685 207.513L702.964 206.82ZM709.594 199.93L710.315 200.623L710.594 200.333V199.93H709.594ZM709.594 180.56H710.594V180.152L710.309 179.86L709.594 180.56ZM703.354 174.19L704.069 173.49L703.775 173.19H703.354V174.19ZM676.314 174.19L675.59 174.88L675.886 175.19H676.314V174.19ZM663.054 160.28H662.054V160.68L662.33 160.97L663.054 160.28ZM663.054 134.8L662.328 134.113L662.054 134.402V134.8H663.054ZM676.574 120.5V119.5H676.144L675.848 119.813L676.574 120.5ZM706.734 120.5L707.461 119.813L707.165 119.5H706.734V120.5ZM720.254 134.8H721.254V134.402L720.981 134.113L720.254 134.8ZM720.254 150.18H709.464V152.18H720.254V150.18ZM710.464 151.18V139.74H708.464V151.18H710.464ZM710.183 139.045L702.383 130.985L700.946 132.375L708.746 140.435L710.183 139.045ZM701.664 130.68H681.774V132.68H701.664V130.68ZM681.06 130.98L674.3 137.87L675.728 139.27L682.488 132.38L681.06 130.98ZM674.014 138.57V156.51H676.014V138.57H674.014ZM674.3 157.21L680.67 163.71L682.099 162.31L675.729 155.81L674.3 157.21ZM681.384 164.01H708.424V162.01H681.384V164.01ZM707.7 163.7L720.83 177.48L722.278 176.1L709.148 162.32L707.7 163.7ZM720.554 176.79V203.7H722.554V176.79H720.554ZM720.828 203.013L707.308 217.313L708.761 218.687L722.281 204.387L720.828 203.013ZM708.034 217H675.274V219H708.034V217ZM676.001 217.313L662.481 203.013L661.028 204.387L674.548 218.687L676.001 217.313ZM662.754 203.7V187.32H660.754V203.7H662.754ZM661.754 188.32H672.544V186.32H661.754V188.32ZM671.544 187.32V198.76H673.544V187.32H671.544ZM671.831 199.461L679.761 207.521L681.187 206.119L673.257 198.059L671.831 199.461ZM680.474 207.82H702.964V205.82H680.474V207.82ZM703.685 207.513L710.315 200.623L708.874 199.237L702.244 206.127L703.685 207.513ZM710.594 199.93V180.56H708.594V199.93H710.594ZM710.309 179.86L704.069 173.49L702.64 174.89L708.88 181.26L710.309 179.86ZM703.354 173.19H676.314V175.19H703.354V173.19ZM677.038 173.5L663.778 159.59L662.33 160.97L675.59 174.88L677.038 173.5ZM664.054 160.28V134.8H662.054V160.28H664.054ZM663.781 135.487L677.301 121.187L675.848 119.813L662.328 134.113L663.781 135.487ZM676.574 121.5H706.734V119.5H676.574V121.5ZM706.008 121.187L719.528 135.487L720.981 134.113L707.461 119.813L706.008 121.187ZM719.254 134.8V151.18H721.254V134.8H719.254ZM741.004 120.5V119.5H740.004V120.5H741.004ZM802.884 120.5H803.884V119.5H802.884V120.5ZM802.884 145.98V146.98H803.884V145.98H802.884ZM792.484 145.98H791.484V146.98H792.484V145.98ZM792.484 130.9H793.484V129.9H792.484V130.9ZM762.064 130.9V129.9H761.064V130.9H762.064ZM762.064 164.05H761.064V165.05H762.064V164.05ZM792.484 164.05H793.484V163.05H792.484V164.05ZM792.484 174.45V175.45H793.484V174.45H792.484ZM762.064 174.45V173.45H761.064V174.45H762.064ZM762.064 207.6H761.064V208.6H762.064V207.6ZM792.484 207.6V208.6H793.484V207.6H792.484ZM792.484 192.52V191.52H791.484V192.52H792.484ZM802.884 192.52H803.884V191.52H802.884V192.52ZM802.884 218V219H803.884V218H802.884ZM741.004 218H740.004V219H741.004V218ZM741.004 207.6V206.6H740.004V207.6H741.004ZM750.104 207.6V208.6H751.104V207.6H750.104ZM750.104 130.9H751.104V129.9H750.104V130.9ZM741.004 130.9H740.004V131.9H741.004V130.9ZM741.004 121.5H802.884V119.5H741.004V121.5ZM801.884 120.5V145.98H803.884V120.5H801.884ZM802.884 144.98H792.484V146.98H802.884V144.98ZM793.484 145.98V130.9H791.484V145.98H793.484ZM792.484 129.9H762.064V131.9H792.484V129.9ZM761.064 130.9V164.05H763.064V130.9H761.064ZM762.064 165.05H792.484V163.05H762.064V165.05ZM791.484 164.05V174.45H793.484V164.05H791.484ZM792.484 173.45H762.064V175.45H792.484V173.45ZM761.064 174.45V207.6H763.064V174.45H761.064ZM762.064 208.6H792.484V206.6H762.064V208.6ZM793.484 207.6V192.52H791.484V207.6H793.484ZM792.484 193.52H802.884V191.52H792.484V193.52ZM801.884 192.52V218H803.884V192.52H801.884ZM802.884 217H741.004V219H802.884V217ZM742.004 218V207.6H740.004V218H742.004ZM741.004 208.6H750.104V206.6H741.004V208.6ZM751.104 207.6V130.9H749.104V207.6H751.104ZM750.104 129.9H741.004V131.9H750.104V129.9ZM742.004 130.9V120.5H740.004V130.9H742.004ZM823.65 120.5V119.5H822.65V120.5H823.65ZM875.65 120.5L876.377 119.813L876.081 119.5H875.65V120.5ZM889.17 134.8H890.17V134.402L889.897 134.113L889.17 134.8ZM889.17 163.4L889.897 164.087L890.17 163.798V163.4H889.17ZM875.65 177.7L874.923 177.013L874.457 177.506L874.743 178.122L875.65 177.7ZM889.56 207.6L888.653 208.022L888.922 208.6H889.56V207.6ZM896.32 207.6H897.32V206.6H896.32V207.6ZM896.32 218V219H897.32V218H896.32ZM871.88 218H870.88V219H871.88V218ZM871.88 207.6V206.6H870.88V207.6H871.88ZM876.95 207.6V208.6H878.518L877.857 207.178L876.95 207.6ZM863.04 177.7L863.947 177.278L863.678 176.7H863.04V177.7ZM844.71 177.7V176.7H843.71V177.7H844.71ZM844.71 207.6H843.71V208.6H844.71V207.6ZM852.51 207.6H853.51V206.6H852.51V207.6ZM852.51 218V219H853.51V218H852.51ZM823.65 218H822.65V219H823.65V218ZM823.65 207.6V206.6H822.65V207.6H823.65ZM832.75 207.6V208.6H833.75V207.6H832.75ZM832.75 130.9H833.75V129.9H832.75V130.9ZM823.65 130.9H822.65V131.9H823.65V130.9ZM844.71 131.68V130.68H843.71V131.68H844.71ZM844.71 166.52H843.71V167.52H844.71V166.52ZM870.45 166.52V167.52H870.869L871.163 167.221L870.45 166.52ZM877.99 158.85L878.703 159.551L878.99 159.259V158.85H877.99ZM877.99 139.35H878.99V138.946L878.709 138.655L877.99 139.35ZM870.58 131.68L871.299 130.985L871.004 130.68H870.58V131.68ZM823.65 121.5H875.65V119.5H823.65V121.5ZM874.923 121.187L888.443 135.487L889.897 134.113L876.377 119.813L874.923 121.187ZM888.17 134.8V163.4H890.17V134.8H888.17ZM888.443 162.713L874.923 177.013L876.377 178.387L889.897 164.087L888.443 162.713ZM874.743 178.122L888.653 208.022L890.467 207.178L876.557 177.278L874.743 178.122ZM889.56 208.6H896.32V206.6H889.56V208.6ZM895.32 207.6V218H897.32V207.6H895.32ZM896.32 217H871.88V219H896.32V217ZM872.88 218V207.6H870.88V218H872.88ZM871.88 208.6H876.95V206.6H871.88V208.6ZM877.857 207.178L863.947 177.278L862.133 178.122L876.043 208.022L877.857 207.178ZM863.04 176.7H844.71V178.7H863.04V176.7ZM843.71 177.7V207.6H845.71V177.7H843.71ZM844.71 208.6H852.51V206.6H844.71V208.6ZM851.51 207.6V218H853.51V207.6H851.51ZM852.51 217H823.65V219H852.51V217ZM824.65 218V207.6H822.65V218H824.65ZM823.65 208.6H832.75V206.6H823.65V208.6ZM833.75 207.6V130.9H831.75V207.6H833.75ZM832.75 129.9H823.65V131.9H832.75V129.9ZM824.65 130.9V120.5H822.65V130.9H824.65ZM843.71 131.68V166.52H845.71V131.68H843.71ZM844.71 167.52H870.45V165.52H844.71V167.52ZM871.163 167.221L878.703 159.551L877.277 158.149L869.737 165.819L871.163 167.221ZM878.99 158.85V139.35H876.99V158.85H878.99ZM878.709 138.655L871.299 130.985L869.861 132.375L877.271 140.045L878.709 138.655ZM870.58 130.68H844.71V132.68H870.58V130.68Z" fill="white"/>
<path d="M104.48 253L81.6 228.8V112.2L104.48 88H166.52L189.4 112.2V228.8L166.52 253H104.48ZM113.06 234.08H157.72L169.16 222.42V118.58L157.94 106.92H113.28L101.84 118.58V222.42L113.06 234.08Z" fill="white"/>
<path d="M104.48 253L103.753 253.687L104.049 254H104.48V253ZM81.6 228.8H80.6V229.198L80.8734 229.487L81.6 228.8ZM81.6 112.2L80.8734 111.513L80.6 111.802V112.2H81.6ZM104.48 88V87H104.049L103.753 87.313L104.48 88ZM166.52 88L167.247 87.313L166.951 87H166.52V88ZM189.4 112.2H190.4V111.802L190.127 111.513L189.4 112.2ZM189.4 228.8L190.127 229.487L190.4 229.198V228.8H189.4ZM166.52 253V254H166.951L167.247 253.687L166.52 253ZM113.06 234.08L112.339 234.773L112.634 235.08H113.06V234.08ZM157.72 234.08V235.08H158.14L158.434 234.78L157.72 234.08ZM169.16 222.42L169.874 223.12L170.16 222.829V222.42H169.16ZM169.16 118.58H170.16V118.177L169.881 117.887L169.16 118.58ZM157.94 106.92L158.661 106.227L158.366 105.92H157.94V106.92ZM113.28 106.92V105.92H112.86L112.566 106.22L113.28 106.92ZM101.84 118.58L101.126 117.88L100.84 118.171V118.58H101.84ZM101.84 222.42H100.84V222.823L101.119 223.113L101.84 222.42ZM105.207 252.313L82.3266 228.113L80.8734 229.487L103.753 253.687L105.207 252.313ZM82.6 228.8V112.2H80.6V228.8H82.6ZM82.3266 112.887L105.207 88.687L103.753 87.313L80.8734 111.513L82.3266 112.887ZM104.48 89H166.52V87H104.48V89ZM165.793 88.687L188.673 112.887L190.127 111.513L167.247 87.313L165.793 88.687ZM188.4 112.2V228.8H190.4V112.2H188.4ZM188.673 228.113L165.793 252.313L167.247 253.687L190.127 229.487L188.673 228.113ZM166.52 252H104.48V254H166.52V252ZM113.06 235.08H157.72V233.08H113.06V235.08ZM158.434 234.78L169.874 223.12L168.446 221.72L157.006 233.38L158.434 234.78ZM170.16 222.42V118.58H168.16V222.42H170.16ZM169.881 117.887L158.661 106.227L157.219 107.613L168.439 119.273L169.881 117.887ZM157.94 105.92H113.28V107.92H157.94V105.92ZM112.566 106.22L101.126 117.88L102.554 119.28L113.994 107.62L112.566 106.22ZM100.84 118.58V222.42H102.84V118.58H100.84ZM101.119 223.113L112.339 234.773L113.781 233.387L102.561 221.727L101.119 223.113Z" fill="white"/>
<line x1="238.5" y1="88" x2="238.5" y2="158" stroke="white" stroke-width="5"/>
<line x1="238.5" y1="183" x2="238.5" y2="253" stroke="white" stroke-width="5"/>
<circle cx="238.5" cy="170.5" r="3.5" fill="white"/>
</svg>
