<svg width="908" height="244" viewBox="0 0 908 244" fill="none" xmlns="http://www.w3.org/2000/svg">
<path d="M236.92 175L223.4 160.7V91.8L236.92 77.5H273.58L287.1 91.8V160.7L273.58 175H236.92ZM241.99 163.82H268.38L275.14 156.93V95.57L268.51 88.68H242.12L235.36 95.57V156.93L241.99 163.82ZM300.151 87.9V77.5H327.711V87.9H318.091L336.941 160.7L355.791 87.9H350.201V77.5H378.281V87.9H372.561L391.411 160.7L410.261 87.9H400.771V77.5H428.331V87.9H422.221L399.731 175H383.741L364.241 99.73L344.741 175H328.751L306.131 87.9H300.151ZM441.379 77.5H472.839V87.9H462.439V164.6H490.779V149.52H500.659V175H441.379V164.6H450.479V87.9H441.379V77.5ZM528.565 77.5H563.275V87.9H557.295L580.175 164.6H586.675V175H559.115V164.6H568.215L562.235 144.58H529.605L523.625 164.6H532.725V175H505.165V164.6H511.665L534.545 87.9H528.565V77.5ZM545.855 89.85L532.725 134.18H559.115L545.855 89.85ZM656.254 108.18H645.464V96.74L637.664 88.68H617.774L611.014 95.57V113.51L617.384 120.01H644.424L657.554 133.79V160.7L644.034 175H611.274L597.754 160.7V144.32H608.544V155.76L616.474 163.82H638.964L645.594 156.93V137.56L639.354 131.19H612.314L599.054 117.28V91.8L612.574 77.5H642.734L656.254 91.8V108.18ZM677.004 77.5H738.884V102.98H728.484V87.9H698.064V121.05H728.484V131.45H698.064V164.6H728.484V149.52H738.884V175H677.004V164.6H686.104V87.9H677.004V77.5ZM759.65 77.5H811.65L825.17 91.8V120.4L811.65 134.7L825.56 164.6H832.32V175H807.88V164.6H812.95L799.04 134.7H780.71V164.6H788.51V175H759.65V164.6H768.75V87.9H759.65V77.5ZM780.71 88.68V123.52H806.45L813.99 115.85V96.35L806.58 88.68H780.71Z" fill="#890B7C"/>
<path d="M40.48 210L17.6 185.8V69.2L40.48 45H102.52L125.4 69.2V185.8L102.52 210H40.48ZM49.06 191.08H93.72L105.16 179.42V75.58L93.94 63.92H49.28L37.84 75.58V179.42L49.06 191.08Z" fill="#890B7C"/>
<line x1="174.5" y1="45" x2="174.5" y2="115" stroke="#890B7C" stroke-width="5"/>
<line x1="174.5" y1="140" x2="174.5" y2="210" stroke="#890B7C" stroke-width="5"/>
<circle cx="174.5" cy="127.5" r="3.5" fill="#890B7C"/>
</svg>
